# xmcd CD database file
#
# Track frame offsets:
#	150
#	12297
#	26234
#	39970
#	53914
#	65281
#	77885
#	90068
#	101858
#	116166
#
# Disc length: 1706 seconds
#
# Revision: 0
# Processed by: cddbd v1.5.2PL0 Copyright (c) Steve Scherf et al.
# Submitted via: CDex 1.70beta2
#
DISCID=7706a80a
DTITLE=Erroll Garner - American Jazz and Blues History_CD2
DYEAR=1999
DGENRE=Jazz
TTITLE0=Stardust
TTITLE1=Stormy Weather Parts 1 and 2
TTITLE2=I surrender dear
TTITLE3=Im confessin Parts 1 and 2
TTITLE4=Shes's funny that way
TTITLE5=Sunny side of the street
TTITLE6=Red sails in the sunset
TTITLE7=I can't believe that you're in love with me
TTITLE8=Stompin' at the Savoy
TTITLE9=Moonglow
EXTD=YEAR: 1999
EXTT0=
EXTT1=
EXTT2=
EXTT3=
EXTT4=
EXTT5=
EXTT6=
EXTT7=
EXTT8=
EXTT9=
PLAYORDER=
